<svg xmlns="http://www.w3.org/2000/svg" viewBox="0 0 512 512" role="img" aria-label="Student Portal">
  <defs>
    <linearGradient id="bg" x1="0" y1="0" x2="1" y2="1">
      <stop offset="0%" stop-color="#F06A34"/>
      <stop offset="100%" stop-color="#C5461A"/>
    </linearGradient>
  </defs>
  <rect width="512" height="512" rx="112" fill="url(#bg)"/>
  <g fill="#FFFFFF">
    <path d="M256 116c-39 0-71 32-71 71v32h-25c-15 0-27 12-27 27v152c0 15 12 27 27 27h192c15 0 27-12 27-27V246c0-15-12-27-27-27h-25v-32c0-39-32-71-71-71zm-37 71c0-20 17-37 37-37s37 17 37 37v32h-74v-32zm37 145a26 26 0 1 0 0-52 26 26 0 0 0 0 52z"/>
  </g>
</svg>
